# File created by Blade
# Date/Time:  Wed Apr 08 16:19:59 2015
# Frame Rate: 120.000 fps
#------------------------------------------------------
:FULLY-SPECIFIED
:DEGREES
2038
root -22.759988 28.559820 2.272416 346.221389 -74.368325 -409.573631
Spine -72.385558 -13.408647 3.326276
Head -90.630464 -2.197132 11.634082
LeftShoulder -14.465286 -4.735675 38.941012
LeftArm 206.477455 -65.511183 -163.839830
LeftForeArm -10.445873 -0.000000 13.887211
LeftHand 16.300584 0.000000 113.460905
LeftHandThumb1 -26.253704 0.000000 33.147579
RightShoulder -24.134122 39.671926 -64.190572
RightArm 20.610106 72.699337 37.866297
RightForeArm 25.028628 0.000000 60.113425
RightHand 18.943074 -0.000000 -71.505572
RightHandThumb1 -24.326973 -0.000000 -32.862282
LeftUpLeg 10.780794 5.997723 14.074407
LeftLeg 56.109753 -0.000000 -0.000000
LeftFoot -7.231919 -18.755938 -10.804320
LeftToeBase -31.576330 -0.000000 0.000000
RightUpLeg 11.261016 -14.347886 -12.112738
RightLeg 58.901981 -0.000000 -0.000000
RightFoot 15.801250 -2.158722 1.316096
RightToeBase -44.512047 -0.000000 0.000000
2039
root -22.780380 28.560169 2.336709 346.497598 -74.247239 -409.777014
Spine -72.457087 -13.372090 3.446609
Head -90.797193 -2.302004 11.647252
LeftShoulder -14.315042 -4.821763 38.769517
LeftArm 207.769744 -65.919729 -164.633710
LeftForeArm -10.707770 0.000000 13.111516
LeftHand 15.963025 0.000000 113.594445
LeftHandThumb1 -26.253704 0.000000 33.147579
RightShoulder -23.659563 39.421614 -63.306289
RightArm 19.354410 73.099244 37.092123
RightForeArm 25.750165 -0.000000 61.922575
RightHand 18.771242 0.000000 -70.246143
RightHandThumb1 -24.326973 -0.000000 -32.862282
LeftUpLeg 10.714606 6.121028 14.142506
LeftLeg 56.186094 -0.000000 -0.000000
LeftFoot -7.277061 -18.860224 -10.726402
LeftToeBase -31.596794 -0.000000 0.000000
RightUpLeg 11.304321 -14.330755 -12.155690
RightLeg 58.838796 -0.000000 -0.000000
RightFoot 15.744951 -2.080748 1.555870
RightToeBase -44.845780 -0.000000 0.000000
2040
root -22.799450 28.559219 2.398086 346.754165 -74.078147 -409.897998
Spine -72.592016 -13.402355 3.506748
Head -90.926783 -2.335024 11.623424
LeftShoulder -14.199631 -4.888226 38.701466
LeftArm 208.951195 -66.415782 -165.441971
LeftForeArm -11.101010 -0.000000 12.297913
LeftHand 16.193431 -0.000000 113.337234
LeftHandThumb1 -26.253704 0.000000 33.147579
RightShoulder -23.113288 39.270454 -62.532044
RightArm 16.782617 73.390981 34.906863
RightForeArm 26.418557 -0.000000 63.357158
RightHand 18.699423 -0.000000 -69.324176
RightHandThumb1 -24.326973 -0.000000 -32.862282
LeftUpLeg 10.566757 6.173814 14.143406
LeftLeg 56.273098 -0.000000 -0.000000
LeftFoot -7.339760 -18.939368 -10.708733
LeftToeBase -31.518292 -0.000000 0.000000
RightUpLeg 11.282902 -14.393610 -12.230938
RightLeg 58.827405 -0.000000 -0.000000
RightFoot 15.575986 -1.994486 1.554650
RightToeBase -44.604825 -0.000000 0.000000
2041
root -22.823580 28.564559 2.467648 346.951207 -74.063145 -410.098154
Spine -72.538321 -13.258433 3.600831
Head -91.058516 -2.307488 11.573165
LeftShoulder -14.211871 -5.017682 38.591490
LeftArm 209.626533 -66.788454 -165.771536
LeftForeArm -11.767327 -0.000000 11.631073
LeftHand 16.581776 -0.000000 113.475480
LeftHandThumb1 -26.253704 0.000000 33.147579
RightShoulder -22.860611 39.327489 -61.918385
RightArm 14.543778 73.264669 32.787171
RightForeArm 26.935102 -0.000000 64.436856
RightHand 18.616255 -0.000000 -69.047488
RightHandThumb1 -24.326973 -0.000000 -32.862282
LeftUpLeg 10.657944 6.332187 14.208862
LeftLeg 56.297316 -0.000000 -0.000000
LeftFoot -7.447758 -19.000661 -10.643863
LeftToeBase -31.541480 -0.000000 0.000000
RightUpLeg 11.381020 -14.299243 -12.317775
RightLeg 58.776670 -0.000000 -0.000000
RightFoot 15.555089 -1.842052 1.653497
RightToeBase -44.846053 -0.000000 0.000000
